<svg fill="none" xmlns="http://www.w3.org/2000/svg">
<path fill-rule="evenodd" clip-rule="evenodd" d="M176.374 40.013L96.4832 119.989H290.09L369.725 40.04L176.374 40.013ZM159.829 0L0 160H306.671L466 0.042736L159.829 0Z" fill="black"/>
<path fill-rule="evenodd" clip-rule="evenodd" d="M183.008 40.0139C178.76 40.0133 174.687 41.7014 171.686 44.7063L123.762 92.6817C113.69 102.764 120.831 119.989 135.081 119.989H283.444C287.698 119.989 291.777 118.295 294.78 115.281L342.546 67.326C352.594 57.2383 345.451 40.0366 331.213 40.0346L183.008 40.0139ZM166.462 0.000925952C162.215 0.000333118 158.142 1.68845 155.14 4.69329L27.2784 132.692C17.2073 142.774 24.3478 160 38.5981 160H300.025C304.279 160 308.359 158.306 311.361 155.291L438.821 27.3288C448.869 17.241 441.726 0.0393477 427.487 0.0373604L166.462 0.000925952Z" fill="black"/>
<path fill-rule="evenodd" clip-rule="evenodd" d="M442.874 40.013L362.983 119.989H556.59L636.225 40.04L442.874 40.013ZM426.329 0L266.5 160H573.171L732.5 0.042736L426.329 0Z" fill="black"/>
<path fill-rule="evenodd" clip-rule="evenodd" d="M449.508 40.0139C445.26 40.0133 441.187 41.7014 438.186 44.7063L390.262 92.6817C380.19 102.764 387.331 119.989 401.581 119.989H549.944C554.198 119.989 558.277 118.295 561.28 115.281L609.046 67.326C619.094 57.2383 611.951 40.0366 597.713 40.0346L449.508 40.0139ZM432.962 0.000925952C428.715 0.000333118 424.642 1.68845 421.64 4.69329L293.778 132.692C283.707 142.774 290.848 160 305.098 160H566.525C570.779 160 574.859 158.306 577.861 155.291L705.321 27.3288C715.369 17.241 708.226 0.0393477 693.987 0.0373604L432.962 0.000925952Z" fill="black"/>
<path fill-rule="evenodd" clip-rule="evenodd" d="M709.374 40.013L629.483 119.989H823.09L902.725 40.04L709.374 40.013ZM692.829 0L533 160H839.671L999 0.042736L692.829 0Z" fill="black"/>
<path fill-rule="evenodd" clip-rule="evenodd" d="M716.008 40.0139C711.76 40.0133 707.687 41.7014 704.686 44.7063L656.762 92.6817C646.69 102.764 653.831 119.989 668.081 119.989H816.444C820.698 119.989 824.777 118.295 827.78 115.281L875.546 67.326C885.594 57.2383 878.451 40.0366 864.213 40.0346L716.008 40.0139ZM699.462 0.000925952C695.215 0.000333118 691.142 1.68845 688.14 4.69329L560.278 132.692C550.207 142.774 557.348 160 571.598 160H833.025C837.279 160 841.359 158.306 844.361 155.291L971.821 27.3288C981.869 17.241 974.726 0.0393477 960.487 0.0373604L699.462 0.000925952Z" fill="black"/>
<path fill-rule="evenodd" clip-rule="evenodd" d="M975.874 40.013L895.983 119.989H1089.59L1169.23 40.04L975.874 40.013ZM959.329 0L799.5 160H1106.17L1265.5 0.042736L959.329 0Z" fill="black"/>
<path fill-rule="evenodd" clip-rule="evenodd" d="M982.508 40.0139C978.26 40.0133 974.187 41.7014 971.186 44.7063L923.262 92.6817C913.19 102.764 920.331 119.989 934.581 119.989H1082.94C1087.2 119.989 1091.28 118.295 1094.28 115.281L1142.05 67.326C1152.09 57.2383 1144.95 40.0366 1130.71 40.0346L982.508 40.0139ZM965.962 0.000925952C961.715 0.000333118 957.642 1.68845 954.64 4.69329L826.778 132.692C816.707 142.774 823.848 160 838.098 160H1099.53C1103.78 160 1107.86 158.306 1110.86 155.291L1238.32 27.3288C1248.37 17.241 1241.23 0.0393477 1226.99 0.0373604L965.962 0.000925952Z" fill="black"/>
<path fill-rule="evenodd" clip-rule="evenodd" d="M1242.37 40.013L1162.48 119.989H1356.09L1435.73 40.04L1242.37 40.013ZM1225.83 0L1066 160H1372.67L1532 0.042736L1225.83 0Z" fill="black"/>
<path fill-rule="evenodd" clip-rule="evenodd" d="M1249.01 40.0139C1244.76 40.0133 1240.69 41.7014 1237.69 44.7063L1189.76 92.6817C1179.69 102.764 1186.83 119.989 1201.08 119.989H1349.44C1353.7 119.989 1357.78 118.295 1360.78 115.281L1408.55 67.326C1418.59 57.2383 1411.45 40.0366 1397.21 40.0346L1249.01 40.0139ZM1232.46 0.000925952C1228.22 0.000333118 1224.14 1.68845 1221.14 4.69329L1093.28 132.692C1083.21 142.774 1090.35 160 1104.6 160H1366.03C1370.28 160 1374.36 158.306 1377.36 155.291L1504.82 27.3288C1514.87 17.241 1507.73 0.0393477 1493.49 0.0373604L1232.46 0.000925952Z" fill="black"/>
<path fill-rule="evenodd" clip-rule="evenodd" d="M1508.87 40.013L1428.98 119.989H1622.59L1702.23 40.04L1508.87 40.013ZM1492.33 0L1332.5 160H1639.17L1798.5 0.042736L1492.33 0Z" fill="black"/>
<path fill-rule="evenodd" clip-rule="evenodd" d="M1515.51 40.0139C1511.26 40.0133 1507.19 41.7014 1504.19 44.7063L1456.26 92.6817C1446.19 102.764 1453.33 119.989 1467.58 119.989H1615.94C1620.2 119.989 1624.28 118.295 1627.28 115.281L1675.05 67.326C1685.09 57.2383 1677.95 40.0366 1663.71 40.0346L1515.51 40.0139ZM1498.96 0.000925952C1494.72 0.000333118 1490.64 1.68845 1487.64 4.69329L1359.78 132.692C1349.71 142.774 1356.85 160 1371.1 160H1632.53C1636.78 160 1640.86 158.306 1643.86 155.291L1771.32 27.3288C1781.37 17.241 1774.23 0.0393477 1759.99 0.0373604L1498.96 0.000925952Z" fill="black"/>
<path fill-rule="evenodd" clip-rule="evenodd" d="M1775.37 40.013L1695.48 119.989H1889.09L1968.73 40.04L1775.37 40.013ZM1758.83 0L1599 160H1905.67L2065 0.042736L1758.83 0Z" fill="black"/>
<path fill-rule="evenodd" clip-rule="evenodd" d="M1782.01 40.0139C1777.76 40.0133 1773.69 41.7014 1770.69 44.7063L1722.76 92.6817C1712.69 102.764 1719.83 119.989 1734.08 119.989H1882.44C1886.7 119.989 1890.78 118.295 1893.78 115.281L1941.55 67.326C1951.59 57.2383 1944.45 40.0366 1930.21 40.0346L1782.01 40.0139ZM1765.46 0.000925952C1761.22 0.000333118 1757.14 1.68845 1754.14 4.69329L1626.28 132.692C1616.21 142.774 1623.35 160 1637.6 160H1899.03C1903.28 160 1907.36 158.306 1910.36 155.291L2037.82 27.3288C2047.87 17.241 2040.73 0.0393477 2026.49 0.0373604L1765.46 0.000925952Z" fill="black"/>
<path fill-rule="evenodd" clip-rule="evenodd" d="M2041.87 40.013L1961.98 119.989H2155.59L2235.23 40.04L2041.87 40.013ZM2025.33 0L1865.5 160H2172.17L2331.5 0.042736L2025.33 0Z" fill="black"/>
<path fill-rule="evenodd" clip-rule="evenodd" d="M2048.51 40.0139C2044.26 40.0133 2040.19 41.7014 2037.19 44.7063L1989.26 92.6817C1979.19 102.764 1986.33 119.989 2000.58 119.989H2148.94C2153.2 119.989 2157.28 118.295 2160.28 115.281L2208.05 67.326C2218.09 57.2383 2210.95 40.0366 2196.71 40.0346L2048.51 40.0139ZM2031.96 0.000925952C2027.72 0.000333118 2023.64 1.68845 2020.64 4.69329L1892.78 132.692C1882.71 142.774 1889.85 160 1904.1 160H2165.53C2169.78 160 2173.86 158.306 2176.86 155.291L2304.32 27.3288C2314.37 17.241 2307.23 0.0393477 2292.99 0.0373604L2031.96 0.000925952Z" fill="black"/>
<path fill-rule="evenodd" clip-rule="evenodd" d="M2308.37 40.013L2228.48 119.989H2422.09L2501.73 40.04L2308.37 40.013ZM2291.83 0L2132 160H2438.67L2598 0.042736L2291.83 0Z" fill="black"/>
<path fill-rule="evenodd" clip-rule="evenodd" d="M2315.01 40.0139C2310.76 40.0133 2306.69 41.7014 2303.69 44.7063L2255.76 92.6817C2245.69 102.764 2252.83 119.989 2267.08 119.989H2415.44C2419.7 119.989 2423.78 118.295 2426.78 115.281L2474.55 67.326C2484.59 57.2383 2477.45 40.0366 2463.21 40.0346L2315.01 40.0139ZM2298.46 0.000925952C2294.22 0.000333118 2290.14 1.68845 2287.14 4.69329L2159.28 132.692C2149.21 142.774 2156.35 160 2170.6 160H2432.03C2436.28 160 2440.36 158.306 2443.36 155.291L2570.82 27.3288C2580.87 17.241 2573.73 0.0393477 2559.49 0.0373604L2298.46 0.000925952Z" fill="black"/>
</svg>
